HIERARCHY
ROOT Hips
{
	OFFSET 0.000000 0.000000 0.000000 
	CHANNELS 6 Xposition Yposition Zposition Yrotation Zrotation Xrotation 
	JOINT Lumbar
	{
		OFFSET 0.000000 0.000000 0.000000 
		CHANNELS 3 Zrotation Xrotation Yrotation
		JOINT Neck
		{
			OFFSET 0.000000 0.445665 0.000000 
			CHANNELS 3 Zrotation Xrotation Yrotation
			End Site
			{
				OFFSET 0.000000 0.227535 0.000000 
			}
		}
		JOINT RightShoulder
		{
			OFFSET 0.019635 0.377685 0.194865 
			CHANNELS 3 Zrotation Xrotation Yrotation
			JOINT RightElbow
			{
				OFFSET 0.000000 -0.243375 0.000000 
				CHANNELS 2 Zrotation Yrotation
				JOINT RightWrist
				{
					OFFSET 0.000000 -0.264825 0.000000 
					CHANNELS 2 Zrotation Xrotation
					End Site
					{
						OFFSET 0.006600 -0.176220 0.000990 
					}
				}
			}
		}
		JOINT LeftShoulder
		{
			OFFSET 0.019635 0.377685 -0.194865 
			CHANNELS 3 Zrotation Xrotation Yrotation
			JOINT LeftElbow
			{
				OFFSET 0.000000 -0.243375 0.000000 
				CHANNELS 2 Zrotation Yrotation
				JOINT LeftWrist
				{
					OFFSET 0.000000 -0.264825 0.000000 
					CHANNELS 2 Zrotation Xrotation
					End Site
					{
						OFFSET 0.006600 -0.176220 -0.000990 
					}
				}
			}
		}
	}
	JOINT RightHip
	{
		OFFSET 0.052140 -0.069960 0.075570 
		CHANNELS 3 Zrotation Xrotation Yrotation
		JOINT RightKnee
		{
			OFFSET 0.000000 -0.402270 0.000000 
			CHANNELS 1 Zrotation
			JOINT RightAnkle
			{
				OFFSET 0.000000 -0.404085 0.000000 
				CHANNELS 3 Zrotation Xrotation Yrotation
				End Site
				{
					OFFSET 0.204105 -0.089430 0.008415 
				}
			}
		}
	}
	JOINT LeftHip
	{
		OFFSET 0.052140 -0.069960 -0.075570 
		CHANNELS 3 Zrotation Xrotation Yrotation
		JOINT LeftKnee
		{
			OFFSET 0.000000 -0.402270 0.000000 
			CHANNELS 1 Zrotation
			JOINT LeftAnkle
			{
				OFFSET 0.000000 -0.404085 0.000000 
				CHANNELS 3 Zrotation Xrotation Yrotation
				End Site
				{
					OFFSET 0.204105 -0.089430 -0.008415 
				}
			}
		}
	}
}
MOTION
Frames: 13
Frame Time: 0.02
-0.73629 -0.02287 -0.73238 903.25157 -32.072 0.09406 42.71444 -1.81355 1.39306 -10.44353 -0.00496 -0.83079 169.88195 -157.71893 -90.01166 137.59896 76.23286 -79.69837 -22.97481 -11.62761 11.71697 -12.43132 111.79704 -96.79219 -28.62205 5.81858 36.41455 -0.1245 -6.00242 -51.13854 -7.60279 -3.5902 -2.56589 40.22526 3.16721 0.44987 -24.88355 -8.80891 5.15026 3.50589
-0.74384 -0.02234 -0.73191 904.30051 -32.08415 -0.10345 42.69999 -1.83978 0.77771 -10.17592 -0.05087 -0.83079 169.88196 -159.2331 -90.01166 137.64129 76.88729 -79.69838 -22.97498 -9.60933 11.48142 -14.37389 111.95217 -95.29812 -27.83111 5.65139 37.23057 -0.08762 -6.519 -48.67915 -7.48603 -3.62094 -2.57869 39.68396 3.38123 0.51221 -24.53012 -8.6872 5.08575 3.45456
-0.75132 -0.02186 -0.73167 905.4412 -32.17942 -0.27841 42.7735 -1.87072 0.14514 -9.88266 -0.11104 -0.83079 169.88196 -160.29639 -90.01166 137.61863 77.50883 -79.69839 -22.97507 -7.44332 11.10245 -16.43832 112.18339 -94.16407 -27.26887 5.52061 37.9027 -0.07366 -6.97702 -45.2739 -7.4962 -3.62311 -2.58149 39.26392 3.59801 0.51729 -24.18705 -8.57589 5.02059 3.40128
-0.75883 -0.02135 -0.73133 906.52941 -32.24423 -0.46098 42.81962 -1.898 -0.46487 -9.60382 -0.16487 -0.83079 169.88197 -161.55517 -90.01166 137.6241 78.14278 -79.6984 -22.9752 -5.35298 10.78686 -18.4394 112.37026 -92.85063 -26.62893 5.36987 38.64706 -0.0458 -7.42049 -42.34251 -7.44495 -3.64115 -2.59026 38.79572 3.81837 0.57696 -23.84026 -8.45856 4.95284 3.3477
-0.76632 -0.02084 -0.731 907.66741 -32.28108 -0.65744 42.81524 -1.9297 -1.13947 -9.31297 -0.2183 -0.83079 169.88197 -162.85818 -90.01166 137.62622 78.79253 -79.69841 -22.97533 -3.21546 10.47636 -20.48734 112.59895 -91.57641 -25.86551 5.23214 39.3597 -0.02724 -8.0335 -39.18348 -7.4032 -3.65154 -2.5954 38.30137 4.02879 0.54303 -23.4882 -8.34383 4.89429 3.2973
-0.77385 -0.02036 -0.73069 908.72031 -32.39367 -0.8186 42.93479 -1.95372 -1.68221 -9.04156 -0.27568 -0.83079 169.88198 -163.95923 -90.01167 137.62319 79.39886 -79.69841 -22.97542 -1.14916 10.12275 -22.45765 112.75957 -90.32019 -25.41455 5.07554 40.10072 0.00269 -8.28667 -36.29208 -7.37418 -3.66894 -2.60459 37.88757 4.25595 0.67636 -23.14913 -8.22783 4.81813 3.24084
-0.78157 -0.01994 -0.73037 909.53459 -32.70905 -0.88714 43.38951 -1.95988 -1.86263 -8.82536 -0.34278 -0.83079 169.88198 -164.62526 -90.01167 137.6249 79.90247 -79.69842 -22.97545 0.73031 9.67798 -24.23131 112.69885 -88.98042 -25.81942 4.87002 41.01197 0.0759 -7.49038 -34.34572 -7.34994 -3.71777 -2.6302 37.68521 4.53595 1.33123 -22.85406 -8.09889 4.6866 3.16417
-0.78933 -0.01955 -0.73006 910.25607 -33.09511 -0.92063 43.96322 -1.95765 -1.90829 -8.63045 -0.4129 -0.83079 169.88198 -165.10079 -90.01167 137.62445 80.36128 -79.69842 -22.97543 2.52341 9.19654 -25.91227 112.56938 -87.65796 -26.52418 4.64258 41.94717 0.15981 -6.34601 -32.71132 -7.33494 -3.77323 -2.65949 37.55619 4.82994 2.14428 -22.56992 -7.96997 4.53905 3.08244
-0.79705 -0.01915 -0.72976 911.0075 -33.43918 -0.97022 44.47251 -1.95663 -2.01159 -8.42896 -0.48017 -0.83079 169.88198 -165.65502 -90.01167 137.62432 80.83394 -79.69841 -22.97541 4.32496 8.73668 -27.60354 112.4809 -86.36063 -27.06198 4.41733 42.83563 0.23354 -5.40766 -30.95695 -7.31609 -3.82158 -2.68488 37.38093 5.11138 2.8522 -22.27421 -7.84582 4.40362 3.00576
-0.80487 -0.01874 -0.7294 911.8143 -33.8271 -1.01844 45.02774 -1.9667 -2.13112 -8.21369 -0.55431 -0.83079 169.88198 -166.22697 -90.01167 137.62455 81.33276 -79.69842 -22.97548 6.26197 8.25038 -29.43451 112.35433 -84.9366 -27.73693 4.22522 43.87097 0.32755 -4.26849 -29.07853 -7.29986 -3.88579 -2.71907 37.26378 5.41933 3.70042 -22.00708 -7.7016 4.24747 2.91724
-0.81248 -0.01835 -0.72917 912.48186 -34.14032 -1.06136 45.51541 -1.95167 -2.18412 -8.0323 -0.61448 -0.83079 169.88198 -166.72242 -90.01167 137.62441 81.7672 -79.69841 -22.97536 7.8942 7.81315 -30.94968 112.28932 -83.77541 -28.19455 3.95953 44.60713 0.38397 -3.46178 -27.54288 -7.27901 -3.91957 -2.73629 37.04225 5.67521 4.29275 -21.6824 -7.59933 4.13098 2.85238
-0.81954 -0.01799 -0.72922 912.79249 -34.22144 -1.09909 45.77801 -1.86896 -2.09054 -7.94102 -0.6371 -0.83079 169.88196 -167.05685 -90.01166 137.62442 82.03201 -79.69836 -22.9747 8.70658 7.51406 -31.62427 112.41476 -83.34013 -27.9781 3.48631 44.51904 0.31807 -3.69183 -26.90299 -7.24051 -3.86188 -2.70247 36.5065 5.7843 4.15676 -21.20031 -7.61053 4.12552 2.85263
-0.82639 -0.01765 -0.7294 912.96473 -34.22608 -1.13263 45.96964 -1.76134 -1.93396 -7.88272 -0.64529 -0.83079 169.88195 -167.32233 -90.01165 137.62439 82.23449 -79.69829 -22.97386 9.21474 7.26765 -31.98198 112.60357 -83.16614 -27.53183 2.94142 44.12837 0.21692 -4.26238 -26.59773 -7.1969 -3.77451 -2.65206 35.86398 5.84054 3.75598 -20.659 -7.66425 4.16089 2.87707
